<?xml version="1.0" encoding="UTF-8" standalone="no"?>
<svg
   viewBox="-178.3 -167.1 1000 700"
   version="1.1"
   id="svg6"
   sodipodi:docname="awesome_logo.svg"
   inkscape:export-filename="C:\Users\Jonathan Beri\Desktop\awesome_zephyr_rtos_logo_dark.png"
   inkscape:export-xdpi="96"
   inkscape:export-ydpi="96"
   inkscape:version="1.1.2 (0a00cf5339, 2022-02-04, custom)"
   xmlns:inkscape="http://www.inkscape.org/namespaces/inkscape"
   xmlns:sodipodi="http://sodipodi.sourceforge.net/DTD/sodipodi-0.dtd"
   xmlns="http://www.w3.org/2000/svg"
   xmlns:svg="http://www.w3.org/2000/svg">
  <defs
     id="defs10">
    <style
       id="style36">.cls-1{fill:#2d3237;}.cls-2{fill:#2d3136;}</style>
    <style
       id="style957">.cls-1{fill:#2d3136;}</style>
  </defs>
  <sodipodi:namedview
     id="namedview8"
     pagecolor="#ffffff"
     bordercolor="#666666"
     borderopacity="1.0"
     inkscape:pageshadow="2"
     inkscape:pageopacity="0.0"
     inkscape:pagecheckerboard="0"
     showgrid="false"
     showguides="true"
     inkscape:guide-bbox="true"
     inkscape:zoom="1.4142136"
     inkscape:cx="606.34406"
     inkscape:cy="448.3057"
     inkscape:window-width="1920"
     inkscape:window-height="1009"
     inkscape:window-x="-8"
     inkscape:window-y="-8"
     inkscape:window-maximized="1"
     inkscape:current-layer="svg6">
    <sodipodi:guide
       position="456.8,145.9"
       orientation="0,-1"
       id="guide2206" />
    <sodipodi:guide
       position="207.5,183.8"
       orientation="1,0"
       id="guide2230" />
    <sodipodi:guide
       position="792.6,145.9"
       orientation="1,0"
       id="guide2232" />
    <sodipodi:guide
       position="792.48438,0"
       orientation="0,-1"
       id="guide2418" />
    <sodipodi:guide
       position="797.625,72.937501"
       orientation="0,-1"
       id="guide2786" />
  </sodipodi:namedview>
  <path
     d="M79.9 323.1c4 0 7.3 1.4 10.1 4.2 2.8 2.8 4.2 6.2 4.2 10.1V387H43.5c-4 0-7.3-1.4-10.1-4.2-2.8-2.8-4.2-6.2-4.2-10.1v-23.6h53.1v-11.7c0-.7-.2-1.2-.7-1.7-.5-.5-1-.7-1.7-.7H29.2v-11.9h50.7zm2.4 52V361H41.1v11.7c0 .7.2 1.2.7 1.7.5.5 1 .7 1.7.7h38.8zm114.7-52h12.7l-24 63.9H176l-21.5-47.5-20.3 47.5-.2-.1.1.1h-9.6l-25.1-63.9H112l17.3 42.4 18.4-42.4h13.6l19.5 42.4 16.2-42.4zm67.2 0c4 0 7.3 1.4 10.1 4.2 2.8 2.8 4.2 6.2 4.2 10.1V361h-53.1v11.7c0 .7.2 1.2.7 1.7.5.5 1 .7 1.7.7h50.7V387h-50.7c-4 0-7.3-1.4-10.1-4.2-2.8-2.8-4.2-6.2-4.2-10.1v-35.3c0-4 1.4-7.3 4.2-10.1 2.8-2.8 6.2-4.2 10.1-4.2h36.4zm-38.8 26h41.2v-11.7c0-.7-.2-1.2-.7-1.7-.5-.5-1-.7-1.7-.7h-36.4c-.7 0-1.2.2-1.7.7-.5.5-.7 1-.7 1.7v11.7zm129-11.6v2.4h-11.9v-2.4c0-.7-.2-1.2-.7-1.7-.5-.5-1-.7-1.7-.7h-36.4c-.7 0-1.2.2-1.7.7-.5.5-.7 1-.7 1.7v9.3c0 .7.2 1.2.7 1.7.5.5 1 .7 1.7.7h36.4c4 0 7.3 1.4 10.1 4.2 2.8 2.8 4.2 6.2 4.2 10.1v9.3c0 4-1.4 7.3-4.2 10.1-2.8 2.8-6.2 4.2-10.1 4.2h-36.4c-4 0-7.3-1.4-10.1-4.2-2.8-2.8-4.2-6.2-4.2-10.1v-2.4h11.9v2.4c0 .7.2 1.2.7 1.7.5.5 1 .7 1.7.7h36.4c.7 0 1.2-.2 1.7-.7.5-.5.7-1 .7-1.7v-9.3c0-.7-.2-1.2-.7-1.7-.5-.5-1-.7-1.7-.7h-36.4c-4 0-7.3-1.4-10.1-4.2-2.8-2.8-4.2-6.2-4.2-10.1v-9.3c0-4 1.4-7.3 4.2-10.1 2.8-2.8 6.2-4.2 10.1-4.2h36.4c4 0 7.3 1.4 10.1 4.2 2.8 2.7 4.2 6.1 4.2 10.1zm25.2-14.4H416c4 0 7.3 1.4 10.1 4.2 2.8 2.8 4.2 6.2 4.2 10.1v35.3c0 4-1.4 7.3-4.2 10.1-2.8 2.8-6.2 4.2-10.1 4.2h-36.4c-4 0-7.3-1.4-10.1-4.2-2.8-2.8-4.2-6.2-4.2-10.1v-35.3c0-4 1.4-7.3 4.2-10.1 2.8-2.8 6.2-4.2 10.1-4.2zM416 335h-36.4c-.7 0-1.2.2-1.7.7-.5.5-.7 1-.7 1.7v35.3c0 .7.2 1.2.7 1.7.5.5 1 .7 1.7.7H416c.7 0 1.2-.2 1.7-.7.5-.5.7-1 .7-1.7v-35.3c0-.7-.2-1.2-.7-1.7-.5-.4-1-.7-1.7-.7zm107.5-11.9c4 0 7.3 1.4 10.1 4.2 2.8 2.8 4.2 6.2 4.2 10.1V387H526v-49.6c0-.7-.2-1.2-.7-1.7-.5-.5-1.1-.7-1.8-.7h-25.2c-.7 0-1.2.2-1.7.7-.5.5-.7 1-.7 1.7V387H484v-49.6c0-.7-.2-1.2-.7-1.7-.5-.5-1-.7-1.7-.7h-25.3c-.7 0-1.2.2-1.7.7-.5.5-.7 1-.7 1.7V387H442v-63.9h81.5zm76.5 0c4 0 7.3 1.4 10.1 4.2 2.8 2.8 4.2 6.2 4.2 10.1V361h-53.1v11.7c0 .7.2 1.2.7 1.7.5.5 1 .7 1.7.7h50.7V387h-50.7c-4 0-7.3-1.4-10.1-4.2-2.8-2.8-4.2-6.2-4.2-10.1v-35.3c0-4 1.4-7.3 4.2-10.1 2.8-2.8 6.2-4.2 10.1-4.2H600zm-38.8 26h41.2v-11.7c0-.7-.2-1.2-.7-1.7-.5-.5-1-.7-1.7-.7h-36.4c-.7 0-1.2.2-1.7.7-.5.5-.7 1-.7 1.7v11.7z"
     fill="#494368"
     id="path2" />
  <path
     fill="#FC60A8"
     d="M614.2 91l-150-137.6-21.1 23L568.1 91H75.4l125-114.7-21.1-23L29.3 91h-.1v90.7c0 41 39.5 74.4 88 74.4h92.5c48.5 0 88-33.4 88-74.4v-59.6h48v59.6c0 41 39.5 74.4 88 74.4h92.5c48.5 0 88-33.4 88-74.4V91z"
     id="path4"
     style="fill:#7929d2;fill-opacity:1" />
  <g
     id="Monochromatic_Positive"
     data-name="Monochromatic Positive"
     transform="matrix(4.4315083,0,0,4.4315083,-76.805739,121.34961)">
    <g
       id="g294"
       transform="translate(38.215342,1.6881318)">
      <polygon
         class="cls-1"
         points="15.767,18.352 16.348,15.049 12.47,16.687 "
         id="polygon40"
         style="fill:#00aeff;fill-opacity:1" />
      <polygon
         class="cls-1"
         points="4.799,18.923 7.976,17.219 3.84,15.671 "
         id="polygon42"
         style="fill:#00aeff;fill-opacity:1" />
      <polygon
         class="cls-1"
         points="7.976,17.219 9.937,14.309 12.47,16.687 "
         id="polygon44"
         style="fill:#00aeff;fill-opacity:1" />
      <polygon
         class="cls-1"
         points="0.713,12.55 4.339,12.074 3.84,15.671 "
         id="polygon46"
         style="fill:#00aeff;fill-opacity:1" />
      <g
         id="minimum">
        <path
           class="cls-1"
           d="M 31.28277,1.07736 20.63513,1.07913 16.181,15.21743 31.287,11.81388 Z M 26.86969,5.6848 30.79512,1.89825 v 8.98813 z M 30.43431,1.56727 26.525,5.33837 21.54332,1.56727 Z M 20.9444,1.72691 26.16325,5.67743 17.053,14.05857 Z m -3.5634,12.69441 9.13032,-8.39954 0.49525,0.65624 3.60907,4.78245 z"
           id="path48"
           style="fill:#00aeff;fill-opacity:1" />
      </g>
      <polygon
         class="cls-1"
         points="15.767,18.352 16.348,15.049 12.47,16.687 "
         id="polygon40-6"
         style="fill:#00aeff;fill-opacity:1"
         transform="translate(71.420376,0.08454443)" />
      <polygon
         class="cls-1"
         points="4.799,18.923 7.976,17.219 3.84,15.671 "
         id="polygon42-4"
         style="fill:#00aeff;fill-opacity:1"
         transform="translate(71.420376,0.08454443)" />
      <polygon
         class="cls-1"
         points="7.976,17.219 9.937,14.309 12.47,16.687 "
         id="polygon44-3"
         style="fill:#00aeff;fill-opacity:1"
         transform="translate(71.420376,0.08454443)" />
      <polygon
         class="cls-1"
         points="0.713,12.55 4.339,12.074 3.84,15.671 "
         id="polygon46-8"
         style="fill:#00aeff;fill-opacity:1"
         transform="translate(71.420376,0.08454443)" />
      <g
         id="minimum-9"
         transform="translate(71.420376,0.08454443)">
        <path
           class="cls-1"
           d="M 31.28277,1.07736 20.63513,1.07913 16.181,15.21743 31.287,11.81388 Z M 26.86969,5.6848 30.79512,1.89825 v 8.98813 z M 30.43431,1.56727 26.525,5.33837 21.54332,1.56727 Z M 20.9444,1.72691 26.16325,5.67743 17.053,14.05857 Z m -3.5634,12.69441 9.13032,-8.39954 0.49525,0.65624 3.60907,4.78245 z"
           id="path48-9"
           style="fill:#00aeff;fill-opacity:1" />
      </g>
    </g>
  </g>
  <g
     id="Colored_Positive"
     data-name="Colored Positive"
     transform="matrix(17.996601,0,0,17.996601,70.763134,396.42608)"
     inkscape:export-filename="C:\Users\Jonathan Beri\Desktop\awesome_zephyr_rtos_logo_dark.png"
     inkscape:export-xdpi="96"
     inkscape:export-ydpi="96">
    <g
       id="g2204"
       transform="translate(2.0700294,-0.24831416)">
      <path
         class="cls-1"
         d="M 1.09214,5.86963 V 5.05615 L 3.26207,2.021 H 1.19468 V 1.13916 H 4.41441 V 1.915 L 2.223,4.98779 h 2.25 v 0.88184 z"
         id="path961" />
      <path
         class="cls-1"
         d="M 5.8148,4.30762 A 1.02226,1.02226 0 0 0 6.04722,4.99462 0.89486,0.89486 0 0 0 6.70347,5.20311 1.44963,1.44963 0 0 0 7.15953,5.13817 0.73151,0.73151 0 0 0 7.50328,4.88866 L 8.15953,5.35692 A 1.32894,1.32894 0 0 1 7.60093,5.82177 2.34409,2.34409 0 0 1 6.66246,5.97558 1.72911,1.72911 0 0 1 5.34117,5.51073 1.99241,1.99241 0 0 1 4.90562,4.106 q 0,-1.92408 1.72266,-1.92432 a 1.51431,1.51431 0 0 1 1.167,0.43213 1.78884,1.78884 0 0 1 0.40137,1.25977 v 0.43408 z m 1.50684,-0.6084 q 0,-0.81664 -0.71387,-0.8169 A 0.81668,0.81668 0 0 0 6.222,2.9624 0.60437,0.60437 0 0 0 5.98079,3.20166 1.48939,1.48939 0 0 0 5.83918,3.69922 Z"
         id="path963" />
      <path
         class="cls-1"
         d="m 12.16539,4.05127 a 2.777,2.777 0 0 1 -0.17383,1.01855 1.46653,1.46653 0 0 1 -0.5,0.67334 A 1.29593,1.29593 0 0 1 10.71617,5.97559 1.47973,1.47973 0 0 1 9.70054,5.603 V 7.2197 H 8.81968 V 2.28418 h 0.8125 v 0.352 a 2.105,2.105 0 0 1 0.51856,-0.333 1.51067,1.51067 0 0 1 0.624,-0.12158 1.21045,1.21045 0 0 1 1.03516,0.47852 2.30592,2.30592 0 0 1 0.35549,1.39115 z m -0.90918,0.01367 a 1.55543,1.55543 0 0 0 -0.18067,-0.81543 0.5961,0.5961 0 0 0 -0.541,-0.292 1.09439,1.09439 0 0 0 -0.44239,0.10059 1.48606,1.48606 0 0 0 -0.3916,0.248 V 4.875 a 1.43656,1.43656 0 0 0 0.34766,0.22412 0.99329,0.99329 0 0 0 0.42578,0.09717 0.65836,0.65836 0 0 0 0.57226,-0.30908 1.44422,1.44422 0 0 0 0.20996,-0.82227 z"
         id="path965" />
      <path
         class="cls-1"
         d="M 15.1146,5.86963 V 3.894 A 1.741,1.741 0 0 0 15.00816,3.14205 0.39637,0.39637 0 0 0 14.63216,2.95748 1.54442,1.54442 0 0 0 13.6849,3.47701 V 5.86963 H 12.80404 V 0.78027 H 13.6849 V 2.749 A 2.03774,2.03774 0 0 1 14.28353,2.32518 1.50362,1.50362 0 0 1 14.9056,2.18162 0.97354,0.97354 0 0 1 15.7513,2.52 1.61292,1.61292 0 0 1 15.99544,3.477 v 2.39263 z"
         id="path967" />
      <path
         class="cls-1"
         d="m 16.41148,6.35156 a 1.60994,1.60994 0 0 0 0.5166,0.09912 0.54609,0.54609 0 0 0 0.34863,-0.11963 1.29854,1.29854 0 0 0 0.31055,-0.4956 L 17.68,5.62354 16.38414,2.28418 h 0.916 l 0.84766,2.29 0.86914,-2.29 h 0.89453 l -1.541,3.83154 a 2.85045,2.85045 0 0 1 -0.36523,0.6836 1.053,1.053 0 0 1 -0.416,0.32129 1.559,1.559 0 0 1 -0.5957,0.09912 2.93864,2.93864 0 0 1 -0.76953,-0.10254 z"
         id="path969" />
      <path
         class="cls-1"
         d="M 22.4857,3.14551 A 0.81621,0.81621 0 0 0 22.12339,3.07715 0.98285,0.98285 0 0 0 21.6566,3.19482 2.09513,2.09513 0 0 0 21.20347,3.53857 V 5.86963 H 20.32261 V 2.28418 h 0.88086 v 0.5127 A 2.28592,2.28592 0 0 1 21.6898,2.39014 1.08046,1.08046 0 0 1 22.26988,2.22949 0.78526,0.78526 0 0 1 22.6605,2.30127 Z"
         id="path971" />
    </g>
  </g>
</svg>
